<?xml version="1.0" encoding="UTF-8"?>
<svg version="1.1" xmlns="http://www.w3.org/2000/svg" width="360" height="360">
<path d="M0 0 C1.39456452 0.00667256 2.78911118 0.01863093 4.18359375 0.03515625 C4.89451172 0.03966797 5.60542969 0.04417969 6.33789062 0.04882812 C8.09899388 0.06064761 9.86005411 0.07858362 11.62109375 0.09765625 C11.76804687 0.98517578 11.76804687 0.98517578 11.91796875 1.890625 C12.87184884 6.93138789 13.82080326 10.40913901 17.62109375 14.09765625 C22.34012742 16.97411712 27.2662303 16.93718993 32.62109375 16.09765625 C35.72976806 14.64804394 37.70494509 12.94023113 39.62109375 10.09765625 C40.46324704 7.70167085 40.97023251 5.46468137 41.33203125 2.953125 C41.62109375 1.09765625 41.62109375 1.09765625 42.62109375 0.09765625 C45.15158777 0.02452058 47.65414212 0.00518098 50.18359375 0.03515625 C51.2499707 0.04192383 51.2499707 0.04192383 52.33789062 0.04882812 C54.09899388 0.06064761 55.86005411 0.07858362 57.62109375 0.09765625 C57.77964844 0.76152344 57.93820313 1.42539062 58.1015625 2.109375 C59.58942644 7.74024128 60.90281442 11.34722909 65.62109375 15.09765625 C69.57508347 17.07465111 74.31149156 16.52374686 78.62109375 16.09765625 C82.91616031 14.18021582 84.24179799 12.81701028 86.43359375 8.66015625 C87.76709297 4.90514401 87.76709297 4.90514401 88.62109375 0.09765625 C93.90109375 0.09765625 99.18109375 0.09765625 104.62109375 0.09765625 C104.86859375 1.47953125 105.11609375 2.86140625 105.37109375 4.28515625 C106.30134425 8.45163031 107.49631627 11.06478399 110.62109375 14.09765625 C115.10182497 16.80715825 119.52480704 16.74978772 124.62109375 16.09765625 C129.07108825 13.9131135 131.6144006 11.63911971 133.62109375 7.09765625 C133.95109375 4.78765625 134.28109375 2.47765625 134.62109375 0.09765625 C139.90109375 0.09765625 145.18109375 0.09765625 150.62109375 0.09765625 C151.20890625 2.41796875 151.20890625 2.41796875 151.80859375 4.78515625 C153.18034636 9.39685789 154.78063257 12.04498198 158.62109375 15.09765625 C162.54642423 17.06032149 167.33177047 16.43906404 171.62109375 16.09765625 C175.90247338 14.40294348 177.68995095 12.2358194 179.62109375 8.09765625 C180.41049133 5.4433069 181.02432376 2.80607388 181.62109375 0.09765625 C186.57109375 0.09765625 191.52109375 0.09765625 196.62109375 0.09765625 C197.61109375 3.56265625 197.61109375 3.56265625 198.62109375 7.09765625 C200.60860382 11.16731974 202.64498889 13.86109727 206.62109375 16.09765625 C211.92724705 16.89965499 216.2309106 16.74309843 221.12109375 14.47265625 C225.60359741 10.21427778 226.71644383 6.05672638 227.62109375 0.09765625 C230.10033176 0.0708053 232.57928215 0.05089078 235.05859375 0.03515625 C235.76564453 0.02677734 236.47269531 0.01839844 237.20117188 0.00976562 C239.00802934 0.00112037 240.81496978 0.04545614 242.62109375 0.09765625 C244.26193157 1.73849407 243.74652866 3.60908364 243.74693489 5.87188721 C243.74954264 6.91131344 243.75215039 7.95073967 243.75483716 9.02166367 C243.75260643 10.1775713 243.75037571 11.33347893 243.74807739 12.52441406 C243.74963738 13.74146152 243.75119737 14.95850899 243.75280464 16.21243668 C243.75611801 19.60593507 243.75490539 22.99937863 243.75181842 26.39287376 C243.74956624 30.04662648 243.75304302 33.70037423 243.75579834 37.35412598 C243.76025699 44.51788855 243.75927915 51.68164068 243.7563857 58.84540367 C243.75413204 64.66488099 243.75381898 70.48435538 243.75490952 76.30383301 C243.75506275 77.13046644 243.75521598 77.95709988 243.75537386 78.80878282 C243.75569357 80.48780155 243.75601778 82.16682029 243.75634645 83.84583902 C243.75920152 99.60909735 243.7559138 115.37234987 243.75054608 131.13560724 C243.74607802 144.67634524 243.74685394 158.21707466 243.75146484 171.7578125 C243.75681013 187.46268225 243.75892683 203.16754691 243.75585258 218.87241745 C243.75553401 220.54543813 243.75521964 222.21845881 243.75490952 223.89147949 C243.75475524 224.71474865 243.75460096 225.53801781 243.75444201 226.38623452 C243.75357672 232.20219307 243.75504 238.0181484 243.75738907 243.83410645 C243.76018676 250.91683037 243.75944946 257.99954321 243.75410832 265.08226585 C243.75147089 268.69952887 243.75046695 272.31677336 243.75375748 275.93403625 C243.7572627 279.84633424 243.75309211 283.75860155 243.74807739 287.67089844 C243.75030811 288.82680607 243.75253884 289.9827137 243.75483716 291.17364883 C243.75222941 292.21307507 243.74962166 293.2525013 243.74693489 294.32342529 C243.74677254 295.22775677 243.74661019 296.13208824 243.74644291 297.0638237 C243.62109375 299.09765625 243.62109375 299.09765625 242.62109375 300.09765625 C239.46311035 300.19795696 236.32691552 300.23202853 233.16845703 300.22463989 C232.16375429 300.22619988 231.15905155 300.22775987 230.12390327 300.22936714 C226.72972304 300.23338185 223.33558688 300.23018568 219.94140625 300.22705078 C217.5192665 300.22840461 215.09712695 300.23018444 212.67498779 300.23236084 C206.76252492 300.23646122 200.85007366 300.23584188 194.9376111 300.2329482 C190.13453346 300.23069434 185.33145937 300.23038157 180.52838135 300.23147202 C179.8460667 300.23162525 179.16375204 300.23177848 178.46076119 300.23193636 C177.07486645 300.23225607 175.68897172 300.23258028 174.30307698 300.23290895 C161.2924446 300.23576387 148.28181925 300.23247653 135.27118802 300.22710858 C124.09550203 300.22264053 112.91982643 300.22341646 101.74414062 300.22802734 C88.78163164 300.23337289 75.81912882 300.23548918 62.85661888 300.23241508 C61.47568131 300.23209651 60.09474373 300.23178214 58.71380615 300.23147202 C58.03427073 300.23131774 57.3547353 300.23116346 56.65460789 300.23100451 C51.85455562 300.2301393 47.05450724 300.23160233 42.25445557 300.23395157 C35.79985249 300.23704099 29.34526447 300.23485705 22.89066315 300.22905731 C20.51417321 300.227729 18.13768162 300.22812503 15.76119232 300.23031998 C12.53201556 300.23302868 9.30290307 300.22965379 6.07373047 300.22463989 C4.64336299 300.22798598 4.64336299 300.22798598 3.1840992 300.23139966 C-3.26475645 300.21180605 -3.26475645 300.21180605 -4.37890625 299.09765625 C-4.4768363 297.50870815 -4.50446159 295.91538832 -4.50474739 294.32342529 C-4.50735514 293.28399906 -4.50996289 292.24457283 -4.51264966 291.17364883 C-4.51041893 290.0177412 -4.50818821 288.86183357 -4.50588989 287.67089844 C-4.50744988 286.45385098 -4.50900987 285.23680351 -4.51061714 283.98287582 C-4.51393051 280.58937743 -4.51271789 277.19593387 -4.50963092 273.80243874 C-4.50737874 270.14868602 -4.51085552 266.49493827 -4.51361084 262.84118652 C-4.51806949 255.67742395 -4.51709165 248.51367182 -4.5141982 241.34990883 C-4.51194454 235.53043151 -4.51163148 229.71095712 -4.51272202 223.89147949 C-4.51287525 223.06484606 -4.51302848 222.23821262 -4.51318636 221.38652968 C-4.51350607 219.70751095 -4.51383028 218.02849221 -4.51415895 216.34947348 C-4.51701402 200.58621515 -4.5137263 184.82296263 -4.50835858 169.05970526 C-4.50389052 155.51896726 -4.50466644 141.97823784 -4.50927734 128.4375 C-4.51462263 112.73263025 -4.51673933 97.02776559 -4.51366508 81.32289505 C-4.51334651 79.64987437 -4.51303214 77.97685369 -4.51272202 76.30383301 C-4.51256774 75.48056385 -4.51241346 74.65729469 -4.51225451 73.80907798 C-4.51138922 67.99311943 -4.5128525 62.1771641 -4.51520157 56.36120605 C-4.51799926 49.27848213 -4.51726196 42.19576929 -4.51192082 35.11304665 C-4.50928339 31.49578363 -4.50827945 27.87853914 -4.51156998 24.26127625 C-4.5150752 20.34897826 -4.51090461 16.43671095 -4.50588989 12.52441406 C-4.50812061 11.36850643 -4.51035134 10.2125988 -4.51264966 9.02166367 C-4.51004191 7.98223743 -4.50743416 6.9428112 -4.50474739 5.87188721 C-4.50458504 4.96755573 -4.50442269 4.06322426 -4.50425541 3.1314888 C-4.28956932 -0.35186559 -3.60432585 0.10417127 0 0 Z " fill="#E2E3E4" transform="translate(60.37890625,29.90234375)"/>
<path d="M0 0 C1.39456452 0.00667256 2.78911118 0.01863093 4.18359375 0.03515625 C4.89451172 0.03966797 5.60542969 0.04417969 6.33789062 0.04882812 C8.09899388 0.06064761 9.86005411 0.07858362 11.62109375 0.09765625 C11.76804687 0.98517578 11.76804687 0.98517578 11.91796875 1.890625 C12.87184884 6.93138789 13.82080326 10.40913901 17.62109375 14.09765625 C22.34012742 16.97411712 27.2662303 16.93718993 32.62109375 16.09765625 C35.72976806 14.64804394 37.70494509 12.94023113 39.62109375 10.09765625 C40.46324704 7.70167085 40.97023251 5.46468137 41.33203125 2.953125 C41.62109375 1.09765625 41.62109375 1.09765625 42.62109375 0.09765625 C45.15158777 0.02452058 47.65414212 0.00518098 50.18359375 0.03515625 C51.2499707 0.04192383 51.2499707 0.04192383 52.33789062 0.04882812 C54.09899388 0.06064761 55.86005411 0.07858362 57.62109375 0.09765625 C57.77964844 0.76152344 57.93820313 1.42539062 58.1015625 2.109375 C59.58942644 7.74024128 60.90281442 11.34722909 65.62109375 15.09765625 C69.57508347 17.07465111 74.31149156 16.52374686 78.62109375 16.09765625 C82.91616031 14.18021582 84.24179799 12.81701028 86.43359375 8.66015625 C87.76709297 4.90514401 87.76709297 4.90514401 88.62109375 0.09765625 C93.90109375 0.09765625 99.18109375 0.09765625 104.62109375 0.09765625 C104.86859375 1.47953125 105.11609375 2.86140625 105.37109375 4.28515625 C106.30134425 8.45163031 107.49631627 11.06478399 110.62109375 14.09765625 C115.10182497 16.80715825 119.52480704 16.74978772 124.62109375 16.09765625 C129.07108825 13.9131135 131.6144006 11.63911971 133.62109375 7.09765625 C133.95109375 4.78765625 134.28109375 2.47765625 134.62109375 0.09765625 C139.90109375 0.09765625 145.18109375 0.09765625 150.62109375 0.09765625 C151.20890625 2.41796875 151.20890625 2.41796875 151.80859375 4.78515625 C153.18034636 9.39685789 154.78063257 12.04498198 158.62109375 15.09765625 C162.54642423 17.06032149 167.33177047 16.43906404 171.62109375 16.09765625 C175.90247338 14.40294348 177.68995095 12.2358194 179.62109375 8.09765625 C180.41049133 5.4433069 181.02432376 2.80607388 181.62109375 0.09765625 C186.57109375 0.09765625 191.52109375 0.09765625 196.62109375 0.09765625 C197.61109375 3.56265625 197.61109375 3.56265625 198.62109375 7.09765625 C200.60860382 11.16731974 202.64498889 13.86109727 206.62109375 16.09765625 C211.92724705 16.89965499 216.2309106 16.74309843 221.12109375 14.47265625 C225.60359741 10.21427778 226.71644383 6.05672638 227.62109375 0.09765625 C230.10033176 0.0708053 232.57928215 0.05089078 235.05859375 0.03515625 C235.76564453 0.02677734 236.47269531 0.01839844 237.20117188 0.00976562 C239.00802934 0.00112037 240.81496978 0.04545614 242.62109375 0.09765625 C244.26193157 1.73849407 243.74652866 3.60908364 243.74693489 5.87188721 C243.74954264 6.91131344 243.75215039 7.95073967 243.75483716 9.02166367 C243.75260643 10.1775713 243.75037571 11.33347893 243.74807739 12.52441406 C243.74963738 13.74146152 243.75119737 14.95850899 243.75280464 16.21243668 C243.75611801 19.60593507 243.75490539 22.99937863 243.75181842 26.39287376 C243.74956624 30.04662648 243.75304302 33.70037423 243.75579834 37.35412598 C243.76025699 44.51788855 243.75927915 51.68164068 243.7563857 58.84540367 C243.75413204 64.66488099 243.75381898 70.48435538 243.75490952 76.30383301 C243.75506275 77.13046644 243.75521598 77.95709988 243.75537386 78.80878282 C243.75569357 80.48780155 243.75601778 82.16682029 243.75634645 83.84583902 C243.75920152 99.60909735 243.7559138 115.37234987 243.75054608 131.13560724 C243.74607802 144.67634524 243.74685394 158.21707466 243.75146484 171.7578125 C243.75681013 187.46268225 243.75892683 203.16754691 243.75585258 218.87241745 C243.75553401 220.54543813 243.75521964 222.21845881 243.75490952 223.89147949 C243.75475524 224.71474865 243.75460096 225.53801781 243.75444201 226.38623452 C243.75357672 232.20219307 243.75504 238.0181484 243.75738907 243.83410645 C243.76018676 250.91683037 243.75944946 257.99954321 243.75410832 265.08226585 C243.75147089 268.69952887 243.75046695 272.31677336 243.75375748 275.93403625 C243.7572627 279.84633424 243.75309211 283.75860155 243.74807739 287.67089844 C243.75030811 288.82680607 243.75253884 289.9827137 243.75483716 291.17364883 C243.75222941 292.21307507 243.74962166 293.2525013 243.74693489 294.32342529 C243.74677254 295.22775677 243.74661019 296.13208824 243.74644291 297.0638237 C243.62109375 299.09765625 243.62109375 299.09765625 242.62109375 300.09765625 C239.46311035 300.19795696 236.32691552 300.23202853 233.16845703 300.22463989 C232.16375429 300.22619988 231.15905155 300.22775987 230.12390327 300.22936714 C226.72972304 300.23338185 223.33558688 300.23018568 219.94140625 300.22705078 C217.5192665 300.22840461 215.09712695 300.23018444 212.67498779 300.23236084 C206.76252492 300.23646122 200.85007366 300.23584188 194.9376111 300.2329482 C190.13453346 300.23069434 185.33145937 300.23038157 180.52838135 300.23147202 C179.8460667 300.23162525 179.16375204 300.23177848 178.46076119 300.23193636 C177.07486645 300.23225607 175.68897172 300.23258028 174.30307698 300.23290895 C161.2924446 300.23576387 148.28181925 300.23247653 135.27118802 300.22710858 C124.09550203 300.22264053 112.91982643 300.22341646 101.74414062 300.22802734 C88.78163164 300.23337289 75.81912882 300.23548918 62.85661888 300.23241508 C61.47568131 300.23209651 60.09474373 300.23178214 58.71380615 300.23147202 C58.03427073 300.23131774 57.3547353 300.23116346 56.65460789 300.23100451 C51.85455562 300.2301393 47.05450724 300.23160233 42.25445557 300.23395157 C35.79985249 300.23704099 29.34526447 300.23485705 22.89066315 300.22905731 C20.51417321 300.227729 18.13768162 300.22812503 15.76119232 300.23031998 C12.53201556 300.23302868 9.30290307 300.22965379 6.07373047 300.22463989 C4.64336299 300.22798598 4.64336299 300.22798598 3.1840992 300.23139966 C-3.26475645 300.21180605 -3.26475645 300.21180605 -4.37890625 299.09765625 C-4.4768363 297.50870815 -4.50446159 295.91538832 -4.50474739 294.32342529 C-4.50735514 293.28399906 -4.50996289 292.24457283 -4.51264966 291.17364883 C-4.51041893 290.0177412 -4.50818821 288.86183357 -4.50588989 287.67089844 C-4.50744988 286.45385098 -4.50900987 285.23680351 -4.51061714 283.98287582 C-4.51393051 280.58937743 -4.51271789 277.19593387 -4.50963092 273.80243874 C-4.50737874 270.14868602 -4.51085552 266.49493827 -4.51361084 262.84118652 C-4.51806949 255.67742395 -4.51709165 248.51367182 -4.5141982 241.34990883 C-4.51194454 235.53043151 -4.51163148 229.71095712 -4.51272202 223.89147949 C-4.51287525 223.06484606 -4.51302848 222.23821262 -4.51318636 221.38652968 C-4.51350607 219.70751095 -4.51383028 218.02849221 -4.51415895 216.34947348 C-4.51701402 200.58621515 -4.5137263 184.82296263 -4.50835858 169.05970526 C-4.50389052 155.51896726 -4.50466644 141.97823784 -4.50927734 128.4375 C-4.51462263 112.73263025 -4.51673933 97.02776559 -4.51366508 81.32289505 C-4.51334651 79.64987437 -4.51303214 77.97685369 -4.51272202 76.30383301 C-4.51256774 75.48056385 -4.51241346 74.65729469 -4.51225451 73.80907798 C-4.51138922 67.99311943 -4.5128525 62.1771641 -4.51520157 56.36120605 C-4.51799926 49.27848213 -4.51726196 42.19576929 -4.51192082 35.11304665 C-4.50928339 31.49578363 -4.50827945 27.87853914 -4.51156998 24.26127625 C-4.5150752 20.34897826 -4.51090461 16.43671095 -4.50588989 12.52441406 C-4.50812061 11.36850643 -4.51035134 10.2125988 -4.51264966 9.02166367 C-4.51004191 7.98223743 -4.50743416 6.9428112 -4.50474739 5.87188721 C-4.50458504 4.96755573 -4.50442269 4.06322426 -4.50425541 3.1314888 C-4.28956932 -0.35186559 -3.60432585 0.10417127 0 0 Z M-0.37890625 4.09765625 C-0.37890625 100.45765625 -0.37890625 196.81765625 -0.37890625 296.09765625 C78.82109375 296.09765625 158.02109375 296.09765625 239.62109375 296.09765625 C239.62109375 199.73765625 239.62109375 103.37765625 239.62109375 4.09765625 C236.65109375 4.09765625 233.68109375 4.09765625 230.62109375 4.09765625 C230.06421875 6.17046875 230.06421875 6.17046875 229.49609375 8.28515625 C227.45288356 14.47316427 223.94774004 16.54655873 218.62109375 20.09765625 C212.40396424 20.96142546 206.74545424 20.54130324 201.2734375 17.36328125 C196.84424759 13.97071025 195.10867109 9.30417696 193.62109375 4.09765625 C190.65109375 4.09765625 187.68109375 4.09765625 184.62109375 4.09765625 C184.39035156 4.773125 184.15960938 5.44859375 183.921875 6.14453125 C180.62199061 15.17030199 180.62199061 15.17030199 175.62109375 18.09765625 C170.27974223 20.561512 165.42320856 20.77271821 159.62109375 20.09765625 C154.50255255 17.72796125 151.31876261 13.97086451 148.62109375 9.09765625 C147.80859375 6.16015625 147.80859375 6.16015625 147.62109375 4.09765625 C144.32109375 4.09765625 141.02109375 4.09765625 137.62109375 4.09765625 C137.27046875 5.45890625 136.91984375 6.82015625 136.55859375 8.22265625 C134.86808674 13.35079712 132.1382346 16.22311207 127.62109375 19.09765625 C121.99005349 20.97466967 115.90880046 20.77549528 110.24609375 19.09765625 C105.83044494 15.7333524 103.25420524 11.43529868 101.80859375 6.09765625 C101.74671875 5.43765625 101.68484375 4.77765625 101.62109375 4.09765625 C98.32109375 4.09765625 95.02109375 4.09765625 91.62109375 4.09765625 C91.24984375 5.39703125 91.24984375 5.39703125 90.87109375 6.72265625 C88.93659064 11.94581465 86.85108779 15.6961785 81.93359375 18.47265625 C76.71814814 20.77558028 71.86681312 21.12020147 66.4140625 19.40234375 C61.61179523 17.2818621 59.08588952 14.83764811 56.62109375 10.09765625 C55.37109375 6.72265625 55.37109375 6.72265625 54.62109375 4.09765625 C51.65109375 4.09765625 48.68109375 4.09765625 45.62109375 4.09765625 C45.22921875 5.31453125 44.83734375 6.53140625 44.43359375 7.78515625 C42.18931782 13.74881906 38.22928265 17.21668187 32.62109375 20.09765625 C27.10109037 20.92231355 22.17302085 20.84590681 17.12109375 18.41015625 C12.2568468 13.91072782 10.11771865 10.45831208 8.62109375 4.09765625 C5.65109375 4.09765625 2.68109375 4.09765625 -0.37890625 4.09765625 Z " fill="#0B0B0B" transform="translate(60.37890625,29.90234375)"/>
<path d="M0 0 C67.98 0 135.96 0 206 0 C206 0.99 206 1.98 206 3 C138.02 3 70.04 3 0 3 C0 2.01 0 1.02 0 0 Z " fill="#232323" transform="translate(77,268)"/>
<path d="M0 0 C67.32 0 134.64 0 204 0 C204 0.99 204 1.98 204 3 C136.68 3 69.36 3 0 3 C0 2.01 0 1.02 0 0 Z " fill="#151515" transform="translate(78,250)"/>
<path d="M0 0 C67.32 0 134.64 0 204 0 C204 0.99 204 1.98 204 3 C136.68 3 69.36 3 0 3 C0 2.01 0 1.02 0 0 Z " fill="#191919" transform="translate(78,231)"/>
<path d="M0 0 C67.32 0 134.64 0 204 0 C204 0.99 204 1.98 204 3 C136.68 3 69.36 3 0 3 C0 2.01 0 1.02 0 0 Z " fill="#141414" transform="translate(78,120)"/>
<path d="M0 0 C18.34821429 -0.80357143 18.34821429 -0.80357143 22.625 2.4375 C24.84316317 4.99505425 25.4919235 7.20750549 25.75 10.5625 C25.4689699 14.17923519 24.96772922 15.04161232 22.625 18.0625 C20 20 20 20 18 20 C20.29034467 24.02784753 22.59825758 28.03712501 25 32 C22.21484375 32.30859375 22.21484375 32.30859375 19 32 C17.12890625 29.84765625 17.12890625 29.84765625 15.5625 27.0625 C13.39575811 23.40194685 13.39575811 23.40194685 10 21.11328125 C7.8805572 20.79937598 7.8805572 20.79937598 5 21 C5 24.63 5 28.26 5 32 C3.35 32 1.7 32 0 32 C0 21.44 0 10.88 0 0 Z " fill="#0F0F0F" transform="translate(88,71)"/>
<path d="M0 0 C18.78571429 0 18.78571429 0 23.875 4.75 C25.54486097 8.08972194 25.50867676 10.3120935 25 14 C22.97632105 17.47359452 20.88983176 19.70338941 17 21 C14.77181559 21.06937062 12.54165476 21.08457084 10.3125 21.0625 C8.54326172 21.04896484 8.54326172 21.04896484 6.73828125 21.03515625 C5.38283203 21.01775391 5.38283203 21.01775391 4 21 C4 24.63 4 28.26 4 32 C2.68 32 1.36 32 0 32 C0 21.44 0 10.88 0 0 Z " fill="#121212" transform="translate(219,71)"/>
<path d="M0 0 C33.33 0 66.66 0 101 0 C101 1.32 101 2.64 101 4 C67.67 4 34.34 4 0 4 C0 2.68 0 1.36 0 0 Z " fill="#3E3E3E" transform="translate(128,175)"/>
<path d="M0 0 C33.33 0 66.66 0 101 0 C101 1.32 101 2.64 101 4 C67.67 4 34.34 4 0 4 C0 2.68 0 1.36 0 0 Z " fill="#3A3A3A" transform="translate(128,138)"/>
<path d="M0 0 C7.59 0 15.18 0 23 0 C23 1.65 23 3.3 23 5 C17.06 5 11.12 5 5 5 C5 7.64 5 10.28 5 13 C10.28 13 15.56 13 21 13 C21 14.65 21 16.3 21 18 C15.39 18 9.78 18 4 18 C4 21.3 4 24.6 4 28 C10.27 28 16.54 28 23 28 C23 29.32 23 30.64 23 32 C15.41 32 7.82 32 0 32 C0 21.44 0 10.88 0 0 Z " fill="#111111" transform="translate(119,71)"/>
<path d="M0 0 C3.96 0 7.92 0 12 0 C12 10.56 12 21.12 12 32 C8.04 32 4.08 32 0 32 C0 21.44 0 10.88 0 0 Z " fill="#111111" transform="translate(254,283)"/>
<path d="M0 0 C7.59 0 15.18 0 23 0 C23 1.65 23 3.3 23 5 C16.73 5 10.46 5 4 5 C4 7.97 4 10.94 4 14 C9.94 14 15.88 14 22 14 C22 15.32 22 16.64 22 18 C16.06 18 10.12 18 4 18 C4 21.3 4 24.6 4 28 C10.27 28 16.54 28 23 28 C23 29.32 23 30.64 23 32 C15.41 32 7.82 32 0 32 C0 21.44 0 10.88 0 0 Z " fill="#0B0B0B" transform="translate(178,71)"/>
<path d="M0 0 C3.63 0 7.26 0 11 0 C11 10.23 11 20.46 11 31 C7.37 31 3.74 31 0 31 C0 20.77 0 10.54 0 0 Z " fill="#010101" transform="translate(271,284)"/>
<path d="M0 0 C3.25 2 3.25 2 5 4 C4.67 4.99 4.34 5.98 4 7 C-0.75 6.125 -0.75 6.125 -3 5 C-7.55906044 4.47036865 -7.55906044 4.47036865 -11.7578125 6.046875 C-13.93626824 7.83594493 -15.72957812 9.45915625 -17 12 C-17.38443942 17.09382228 -16.87900399 19.80145251 -14 24 C-14 24.66 -14 25.32 -14 26 C-9.00347926 27.66550691 -3.94227317 27.63421165 1.0625 26 C1.701875 25.67 2.34125 25.34 3 25 C3.66 26.32 4.32 27.64 5 29 C-0.32964945 32.6286975 -4.52430569 34.18169604 -11 33 C-15.70473589 30.51447915 -19.69441463 27.41533293 -22.25 22.6875 C-23.99281686 16.44240624 -23.12605986 11.62690775 -20 6 C-13.94492058 -0.26498884 -8.45566025 -0.86695851 0 0 Z " fill="#121212" transform="translate(168,71)"/>
<path d="M0 0 C33.33 0 66.66 0 101 0 C101 0.99 101 1.98 101 3 C67.67 3 34.34 3 0 3 C0 2.01 0 1.02 0 0 Z " fill="#1C1C1C" transform="translate(128,213)"/>
<path d="M0 0 C33.33 0 66.66 0 101 0 C101 0.99 101 1.98 101 3 C67.67 3 34.34 3 0 3 C0 2.01 0 1.02 0 0 Z " fill="#161616" transform="translate(128,194)"/>
<path d="M0 0 C33.33 0 66.66 0 101 0 C101 0.99 101 1.98 101 3 C67.67 3 34.34 3 0 3 C0 2.01 0 1.02 0 0 Z " fill="#151515" transform="translate(128,157)"/>
<path d="M0 0 C8.58 0 17.16 0 26 0 C26 1.65 26 3.3 26 5 C22.7 5 19.4 5 16 5 C16 14.24 16 23.48 16 33 C14.35 33 12.7 33 11 33 C11 23.76 11 14.52 11 5 C7.37 5 3.74 5 0 5 C0 3.35 0 1.7 0 0 Z " fill="#1A1A1A" transform="translate(246,71)"/>
<path d="M0 0 C2.31 0 4.62 0 7 0 C7 10.56 7 21.12 7 32 C4.69 32 2.38 32 0 32 C0 21.44 0 10.88 0 0 Z " fill="#151515" transform="translate(231,283)"/>
<path d="M0 0 C2.31 0 4.62 0 7 0 C7 10.56 7 21.12 7 32 C4.69 32 2.38 32 0 32 C0 21.44 0 10.88 0 0 Z " fill="#161616" transform="translate(169,283)"/>
<path d="M0 0 C2.31 0 4.62 0 7 0 C7 10.56 7 21.12 7 32 C4.69 32 2.38 32 0 32 C0 21.44 0 10.88 0 0 Z " fill="#171717" transform="translate(134,283)"/>
<path d="M0 0 C1.98 0 3.96 0 6 0 C6 10.23 6 20.46 6 31 C4.02 31 2.04 31 0 31 C0 20.77 0 10.54 0 0 Z " fill="#030303" transform="translate(112,284)"/>
<path d="M0 0 C1.98 0 3.96 0 6 0 C6 10.23 6 20.46 6 31 C4.02 31 2.04 31 0 31 C0 20.77 0 10.54 0 0 Z " fill="#020202" transform="translate(78,284)"/>
<path d="M0 0 C11.625 -0.25 11.625 -0.25 15 2 C15.5 5.4375 15.5 5.4375 15 9 C12.62620356 11.45292298 10.81346124 11.94535528 7.44140625 12.171875 C4.96031589 12.18595211 2.47914777 12.09916591 0 12 C0 8.04 0 4.08 0 0 Z " fill="#DDDEDF" transform="translate(93,76)"/>
<path d="M0 0 C1.65 0 3.3 0 5 0 C5 10.56 5 21.12 5 32 C3.35 32 1.7 32 0 32 C0 21.44 0 10.88 0 0 Z " fill="#151515" transform="translate(207,71)"/>
<path d="M0 0 C11.25 -0.40178571 11.25 -0.40178571 15 3 C14.74438677 5.3431213 14.40729228 7.67843403 14 10 C11.23547967 11.38226016 8.9538637 11.09525387 5.875 11.0625 C4.77929688 11.05347656 3.68359375 11.04445313 2.5546875 11.03515625 C1.29011719 11.01775391 1.29011719 11.01775391 0 11 C0 7.37 0 3.74 0 0 Z " fill="#E4E5E6" transform="translate(224,76)"/>
<path d="M0 0 C14.52 0 29.04 0 44 0 C44 0.99 44 1.98 44 3 C29.48 3 14.96 3 0 3 C0 2.01 0 1.02 0 0 Z " fill="#252626" transform="translate(239,176)"/>
<path d="M0 0 C14.52 0 29.04 0 44 0 C44 0.99 44 1.98 44 3 C29.48 3 14.96 3 0 3 C0 2.01 0 1.02 0 0 Z " fill="#282828" transform="translate(239,139)"/>
<path d="M0 0 C14.19 0 28.38 0 43 0 C43 0.99 43 1.98 43 3 C28.81 3 14.62 3 0 3 C0 2.01 0 1.02 0 0 Z " fill="#1D1D1D" transform="translate(239,213)"/>
<path d="M0 0 C14.19 0 28.38 0 43 0 C43 0.99 43 1.98 43 3 C28.81 3 14.62 3 0 3 C0 2.01 0 1.02 0 0 Z " fill="#161616" transform="translate(239,194)"/>
<path d="M0 0 C14.19 0 28.38 0 43 0 C43 0.99 43 1.98 43 3 C28.81 3 14.62 3 0 3 C0 2.01 0 1.02 0 0 Z " fill="#151515" transform="translate(239,157)"/>
<path d="M0 0 C1.32 0 2.64 0 4 0 C4 10.56 4 21.12 4 32 C2.68 32 1.36 32 0 32 C0 21.44 0 10.88 0 0 Z " fill="#2B2B2B" transform="translate(225,283)"/>
<path d="M0 0 C1.32 0 2.64 0 4 0 C4 10.56 4 21.12 4 32 C2.68 32 1.36 32 0 32 C0 21.44 0 10.88 0 0 Z " fill="#2C2C2C" transform="translate(211,283)"/>
<path d="M0 0 C1.32 0 2.64 0 4 0 C4 10.56 4 21.12 4 32 C2.68 32 1.36 32 0 32 C0 21.44 0 10.88 0 0 Z " fill="#2F2F2F" transform="translate(217,283)"/>
<path d="M0 0 C1.32 0 2.64 0 4 0 C4 10.23 4 20.46 4 31 C2.68 31 1.36 31 0 31 C0 20.77 0 10.54 0 0 Z " fill="#2D2D2D" transform="translate(247,284)"/>
<path d="M0 0 C0.99 0 1.98 0 3 0 C3 10.56 3 21.12 3 32 C2.01 32 1.02 32 0 32 C0 21.44 0 10.88 0 0 Z " fill="#3F3F3F" transform="translate(144,283)"/>
<path d="M0 0 C0.99 0 1.98 0 3 0 C3 10.23 3 20.46 3 31 C2.01 31 1.02 31 0 31 C0 20.77 0 10.54 0 0 Z " fill="#080808" transform="translate(155,284)"/>
<path d="M0 0 C0.99 0 1.98 0 3 0 C3 10.23 3 20.46 3 31 C2.01 31 1.02 31 0 31 C0 20.77 0 10.54 0 0 Z " fill="#090909" transform="translate(163,284)"/>
<path d="M0 0 C0.99 0 1.98 0 3 0 C3 10.23 3 20.46 3 31 C2.01 31 1.02 31 0 31 C0 20.77 0 10.54 0 0 Z " fill="#0E0E0E" transform="translate(149,284)"/>
<path d="M0 0 C0.99 0 1.98 0 3 0 C3 10.23 3 20.46 3 31 C2.01 31 1.02 31 0 31 C0 20.77 0 10.54 0 0 Z " fill="#0E0E0E" transform="translate(104,284)"/>
<path d="M0 0 C0.99 0 1.98 0 3 0 C3 10.23 3 20.46 3 31 C2.01 31 1.02 31 0 31 C0 20.77 0 10.54 0 0 Z " fill="#0E0E0E" transform="translate(89,284)"/>
</svg>
