<?xml version="1.0" encoding="UTF-8"?>
<svg version="1.1" xmlns="http://www.w3.org/2000/svg" width="360" height="360">
<path d="M0 0 C2.06494808 -0.37752342 2.06494808 -0.37752342 4.66209412 -0.38095093 C5.64496399 -0.3894104 6.62783386 -0.39786987 7.64048767 -0.40658569 C9.26368675 -0.39747665 9.26368675 -0.39747665 10.91967773 -0.38818359 C12.05631866 -0.39344055 13.19295959 -0.39869751 14.36404419 -0.40411377 C18.13736542 -0.41736358 21.9102679 -0.40855721 25.68359375 -0.3984375 C28.29671815 -0.40045693 30.90984201 -0.40336728 33.52296448 -0.40713501 C39.00664846 -0.4125972 44.49021135 -0.40538972 49.97387695 -0.39111328 C56.31552548 -0.37479388 62.65688456 -0.38006803 68.99852604 -0.3965925 C75.09503995 -0.41184312 81.19142547 -0.41023335 87.28795052 -0.4014473 C89.88397321 -0.39944159 92.48000326 -0.40191746 95.07601738 -0.40888596 C98.70118826 -0.41647988 102.32579873 -0.40492399 105.95092773 -0.38818359 C107.03103622 -0.39425629 108.11114471 -0.40032898 109.22398376 -0.40658569 C110.70251831 -0.39389648 110.70251831 -0.39389648 112.21092224 -0.38095093 C113.49707507 -0.37925431 113.49707507 -0.37925431 114.80921078 -0.37752342 C117.49620093 0.08550684 118.39583581 0.82456411 120 3 C120.1875 5.6875 120.1875 5.6875 120 8 C122.31 8 124.62 8 127 8 C127.02332673 30.14797429 127.04097806 52.29594656 127.05181217 74.44393063 C127.05697561 84.72686612 127.06401922 95.009794 127.07543945 105.29272461 C127.08538483 114.2519195 127.09185308 123.21110887 127.09408849 132.17030913 C127.09539585 136.91720071 127.09848327 141.66407652 127.10573006 146.41096306 C127.11248797 150.87353026 127.11461743 155.33607509 127.11310768 159.79864693 C127.11338411 161.44142401 127.11539059 163.08420181 127.11920547 164.72697449 C127.12413916 166.95997371 127.12299951 169.19288709 127.12025452 171.42588806 C127.12163721 173.30496306 127.12163721 173.30496306 127.12304783 175.22199917 C127 178 127 178 126 179 C124.44379604 179.09588124 122.88323546 179.12188033 121.32408142 179.12025452 C120.31300827 179.12162918 119.30193512 179.12300385 118.26022339 179.12442017 C116.58248337 179.11902725 116.58248337 179.11902725 114.87084961 179.11352539 C113.70027512 179.11367142 112.52970062 179.11381744 111.32365417 179.1139679 C108.10479057 179.11338895 104.88596996 179.10835991 101.66711497 179.10139394 C98.306526 179.09515957 94.94593627 179.09455654 91.58534241 179.09336853 C85.21757658 179.09025546 78.84982784 179.0820424 72.48206955 179.07201904 C65.23430271 179.06085715 57.98653507 179.05534726 50.73876178 179.05032361 C35.82583165 179.03985977 20.91291753 179.0222608 6 179 C6 176.69 6 174.38 6 172 C4.02 172 2.04 172 0 172 C-2.2352092 168.41209904 -2.25136246 165.4521783 -2.25396729 161.27513123 C-2.25708727 160.60004408 -2.26020725 159.92495694 -2.26342177 159.22941262 C-2.27139572 156.96852662 -2.26508062 154.70790946 -2.25878906 152.44702148 C-2.26149917 150.82570234 -2.26506021 149.20438443 -2.26940918 147.58306885 C-2.27853238 143.18032146 -2.2749894 138.77766774 -2.26865101 134.3749187 C-2.26359154 129.77053749 -2.26828224 125.16616436 -2.27142334 120.56178284 C-2.27506277 112.83031777 -2.2702641 105.09889091 -2.26074219 97.36743164 C-2.24985384 88.4230625 -2.25338607 79.47878451 -2.264395 70.53441757 C-2.27346394 62.85961101 -2.27475519 55.18483193 -2.26951766 47.51002175 C-2.26639629 42.92408476 -2.26599327 38.33819065 -2.27259064 33.75225639 C-2.27835789 29.44225663 -2.27437862 25.1323747 -2.26280212 20.8223877 C-2.26015237 19.23850259 -2.26092598 17.6546076 -2.26532745 16.07072639 C-2.27077192 13.9129777 -2.26396252 11.75560942 -2.25396729 9.59788513 C-2.25321323 8.38907905 -2.25245918 7.18027296 -2.25168228 5.93483639 C-2 3 -2 3 0 0 Z " fill="#ECECEC" transform="translate(121,94)"/>
<path d="M0 0 C2.64 0 5.28 0 8 0 C8.02332673 22.14797429 8.04097806 44.29594656 8.05181217 66.44393063 C8.05697561 76.72686612 8.06401922 87.009794 8.07543945 97.29272461 C8.08538483 106.2519195 8.09185308 115.21110887 8.09408849 124.17030913 C8.09539585 128.91720071 8.09848327 133.66407652 8.10573006 138.41096306 C8.11248797 142.87353026 8.11461743 147.33607509 8.11310768 151.79864693 C8.11338411 153.44142401 8.11539059 155.08420181 8.11920547 156.72697449 C8.12413916 158.95997371 8.12299951 161.19288709 8.12025452 163.42588806 C8.12117631 164.67860473 8.1220981 165.93132139 8.12304783 167.22199917 C8 170 8 170 7 171 C5.44379604 171.09588124 3.88323546 171.12188033 2.32408142 171.12025452 C1.31300827 171.12162918 0.30193512 171.12300385 -0.73977661 171.12442017 C-2.41751663 171.11902725 -2.41751663 171.11902725 -4.12915039 171.11352539 C-5.29972488 171.11367142 -6.47029938 171.11381744 -7.67634583 171.1139679 C-10.89520943 171.11338895 -14.11403004 171.10835991 -17.33288503 171.10139394 C-20.693474 171.09515957 -24.05406373 171.09455654 -27.41465759 171.09336853 C-33.78242342 171.09025546 -40.15017216 171.0820424 -46.51793045 171.07201904 C-53.76569729 171.06085715 -61.01346493 171.05534726 -68.26123822 171.05032361 C-83.17416835 171.03985977 -98.08708247 171.0222608 -113 171 C-113 168.36 -113 165.72 -113 163 C-75.71 163 -38.42 163 0 163 C0 109.21 0 55.42 0 0 Z " fill="#CBCBCB" transform="translate(240,102)"/>
<path d="M0 0 C16.83 0 33.66 0 51 0 C51 0.99 51 1.98 51 3 C34.17 3 17.34 3 0 3 C0 2.01 0 1.02 0 0 Z " fill="#C6C6C6" transform="translate(132,175)"/>
<path d="M0 0 C6.27 0 12.54 0 19 0 C19 0.66 19 1.32 19 2 C18.01 2 17.02 2 16 2 C16 4.97 16 7.94 16 11 C14.68 11 13.36 11 12 11 C12 8.03 12 5.06 12 2 C11.01 2 10.02 2 9 2 C8.67 3.32 8.34 4.64 8 6 C6.35 6.33 4.7 6.66 3 7 C3 8.32 3 9.64 3 11 C2.01 11 1.02 11 0 11 C0 7.37 0 3.74 0 0 Z " fill="#6D8087" transform="translate(194,111)"/>
<path d="M0 0 C2.64590014 -0.02684679 5.29153096 -0.04676357 7.9375 -0.0625 C8.69224609 -0.07087891 9.44699219 -0.07925781 10.22460938 -0.08789062 C12.14994313 -0.09652441 14.07535581 -0.05224333 16 0 C17 1 17 1 17.1875 4.4375 C17 8 17 8 15 10 C12.5 10.25 12.5 10.25 10 10 C8 8 8 8 7.875 4.875 C7.91625 3.92625 7.9575 2.9775 8 2 C7.01 2 6.02 2 5 2 C5 4.64 5 7.28 5 10 C4.01 10 3.02 10 2 10 C2 7.36 2 4.72 2 2 C1.34 2 0.68 2 0 2 C0 1.34 0 0.68 0 0 Z " fill="#6D7F87" transform="translate(132,215)"/>
<path d="M0 0 C12.87 0 25.74 0 39 0 C39 0.99 39 1.98 39 3 C26.13 3 13.26 3 0 3 C0 2.01 0 1.02 0 0 Z " fill="#C7C7C7" transform="translate(132,148)"/>
<path d="M0 0 C2.31 0 4.62 0 7 0 C7 0.66 7 1.32 7 2 C7.66 2 8.32 2 9 2 C9 1.34 9 0.68 9 0 C9.66 0 10.32 0 11 0 C11.33 0.66 11.66 1.32 12 2 C12.33 1.34 12.66 0.68 13 0 C16.33333333 0 19.66666667 0 23 0 C23 1.98 23 3.96 23 6 C22.34 6 21.68 6 21 6 C20.67 5.34 20.34 4.68 20 4 C19.67 4.66 19.34 5.32 19 6 C15.7 6 12.4 6 9 6 C9 5.34 9 4.68 9 4 C8.34 4 7.68 4 7 4 C7 4.66 7 5.32 7 6 C6.34 6 5.68 6 5 6 C5 4.68 5 3.36 5 2 C4.34 2 3.68 2 3 2 C3 3.32 3 4.64 3 6 C2.34 6 1.68 6 1 6 C0.67 4.02 0.34 2.04 0 0 Z " fill="#87959B" transform="translate(154,248)"/>
<path d="M0 0 C2.64 0 5.28 0 8 0 C8 0.33 8 0.66 8 1 C6.02 1 4.04 1 2 1 C2 1.99 2 2.98 2 4 C3.98 4 5.96 4 8 4 C8 4.66 8 5.32 8 6 C6.02 6 4.04 6 2 6 C2 6.66 2 7.32 2 8 C4.64 8 7.28 8 10 8 C10 5.36 10 2.72 10 0 C10.99 0 11.98 0 13 0 C13 3.63 13 7.26 13 11 C8.71 11 4.42 11 0 11 C0 7.37 0 3.74 0 0 Z " fill="#87969C" transform="translate(180,111)"/>
<path d="M0 0 C0.66 1.32 1.32 2.64 2 4 C-0.31 3.67 -2.62 3.34 -5 3 C-4.67 4.98 -4.34 6.96 -4 9 C-3.01 9.33 -2.02 9.66 -1 10 C-1 9.34 -1 8.68 -1 8 C-0.01 8 0.98 8 2 8 C1.34 9.32 0.68 10.64 0 12 C-2.74086056 12.22223194 -4.43963721 12.34781139 -6.8125 10.875 C-8.55198782 8.12844028 -8.39769128 6.18153026 -8 3 C-5.87141064 -0.36093057 -3.79035926 -0.30732643 0 0 Z " fill="#6F8288" transform="translate(176,110)"/>
<path d="M0 0 C3.3 0 6.6 0 10 0 C10 0.66 10 1.32 10 2 C9.01 2 8.02 2 7 2 C7 4.97 7 7.94 7 11 C5.68 11 4.36 11 3 11 C3 8.03 3 5.06 3 2 C2.01 2 1.02 2 0 2 C-0.33 2.99 -0.66 3.98 -1 5 C-0.67 3.35 -0.34 1.7 0 0 Z " fill="#809096" transform="translate(203,111)"/>
<path d="M0 0 C2.64 0 5.28 0 8 0 C8 0.66 8 1.32 8 2 C6.02 2 4.04 2 2 2 C2 2.66 2 3.32 2 4 C3.65 4 5.3 4 7 4 C7 4.66 7 5.32 7 6 C5.35 6 3.7 6 2 6 C2 6.99 2 7.98 2 9 C3.98 9 5.96 9 8 9 C8 9.66 8 10.32 8 11 C5.36 11 2.72 11 0 11 C0 7.37 0 3.74 0 0 Z " fill="#51676F" transform="translate(159,111)"/>
<path d="M0 0 C0.33 0 0.66 0 1 0 C1 3.63 1 7.26 1 11 C0.34 10.01 -0.32 9.02 -1 8 C-1.99 7.67 -2.98 7.34 -4 7 C-4 7.66 -4 8.32 -4 9 C-5.32 8.67 -6.64 8.34 -8 8 C-8 6.02 -8 4.04 -8 2 C-5.36 2.33 -2.72 2.66 0 3 C0 2.01 0 1.02 0 0 Z " fill="#E1E4E5" transform="translate(179,111)"/>
<path d="M0 0 C0.99 0.33 1.98 0.66 3 1 C3.94921875 3.06640625 3.94921875 3.06640625 4.6875 5.5625 C5.06455078 6.80193359 5.06455078 6.80193359 5.44921875 8.06640625 C5.63097656 8.70449219 5.81273437 9.34257812 6 10 C4.88625 9.814375 3.7725 9.62875 2.625 9.4375 C-0.82568861 8.68319343 -0.82568861 8.68319343 -3 10 C-2.25 3.375 -2.25 3.375 0 0 Z " fill="#64787F" transform="translate(161,215)"/>
<path d="M0 0 C1.98 0 3.96 0 6 0 C4.68 0.33 3.36 0.66 2 1 C2 1.99 2 2.98 2 4 C3.65 4 5.3 4 7 4 C7.33 3.01 7.66 2.02 8 1 C7.979375 1.9075 7.95875 2.815 7.9375 3.75 C7.9889755 6.42672588 8.2215017 8.46988052 9 11 C6.11562221 9.70700306 4.12780579 8.34058637 2 6 C2 7.32 2 8.64 2 10 C1.34 10 0.68 10 0 10 C0 6.7 0 3.4 0 0 Z " fill="#536971" transform="translate(148,111)"/>
<path d="M0 0 C0 0.66 0 1.32 0 2 C-0.66 2 -1.32 2 -2 2 C-2 2.66 -2 3.32 -2 4 C-1.34 4 -0.68 4 0 4 C-0.33 5.65 -0.66 7.3 -1 9 C-2.32 9 -3.64 9 -5 9 C-5.70074844 5.846632 -6 3.27275026 -6 0 C-3.50907189 -1.24546405 -2.58919267 -0.7767578 0 0 Z " fill="#5F737A" transform="translate(228,215)"/>
<path d="M0 0 C0 0.66 0 1.32 0 2 C-0.66 2 -1.32 2 -2 2 C-1.01 3.485 -1.01 3.485 0 5 C-0.1875 7.125 -0.1875 7.125 -1 9 C-1.99 9.33 -2.98 9.66 -4 10 C-4.66 9.67 -5.32 9.34 -6 9 C-5.814375 8.443125 -5.62875 7.88625 -5.4375 7.3125 C-4.92448835 4.600867 -5.3359276 2.65628961 -6 0 C-3.50907189 -1.24546405 -2.58919267 -0.7767578 0 0 Z " fill="#5C7077" transform="translate(213,215)"/>
<path d="M0 0 C0.61875 0.165 1.2375 0.33 1.875 0.5 C4.16786836 1.23577017 4.16786836 1.23577017 7 0 C7 1.65 7 3.3 7 5 C7.66 5 8.32 5 9 5 C9 3.35 9 1.7 9 0 C9.33 0 9.66 0 10 0 C10 1.98 10 3.96 10 6 C6.7 6 3.4 6 0 6 C-0.38218767 4.34385343 -0.71395102 2.67542976 -1 1 C-0.67 0.67 -0.34 0.34 0 0 Z " fill="#798990" transform="translate(193,248)"/>
<path d="M0 0 C0 2.64 0 5.28 0 8 C-2.64 8 -5.28 8 -8 8 C-8 7.34 -8 6.68 -8 6 C-6.02 6 -4.04 6 -2 6 C-2 5.34 -2 4.68 -2 4 C-3.98 4 -5.96 4 -8 4 C-8 3.01 -8 2.02 -8 1 C-2.25 0 -2.25 0 0 0 Z " fill="#D8DDDF" transform="translate(190,111)"/>
<path d="M0 0 C2.64 0 5.28 0 8 0 C8 0.33 8 0.66 8 1 C6.02 1 4.04 1 2 1 C2 1.99 2 2.98 2 4 C3.98 4 5.96 4 8 4 C8 4.66 8 5.32 8 6 C6.02 6 4.04 6 2 6 C2 6.99 2 7.98 2 9 C3.98 9 5.96 9 8 9 C8 9.33 8 9.66 8 10 C5.36 10 2.72 10 0 10 C0 6.7 0 3.4 0 0 Z " fill="#445C65" transform="translate(180,111)"/>
<path d="M0 0 C1.98 0.495 1.98 0.495 4 1 C4 1.66 4 2.32 4 3 C3.34 3 2.68 3 2 3 C2 3.66 2 4.32 2 5 C2.99 5.33 3.98 5.66 5 6 C4.6875 7.9375 4.6875 7.9375 4 10 C3.01 10.33 2.02 10.66 1 11 C0.34 10.67 -0.32 10.34 -1 10 C-1 9.34 -1 8.68 -1 8 C-0.34 8 0.32 8 1 8 C0.34 7.01 -0.32 6.02 -1 5 C-0.625 2.3125 -0.625 2.3125 0 0 Z " fill="#5A6F77" transform="translate(216,214)"/>
<path d="M0 0 C2.31 0 4.62 0 7 0 C7 0.66 7 1.32 7 2 C7.66 2 8.32 2 9 2 C9.33 1.34 9.66 0.68 10 0 C10 1.98 10 3.96 10 6 C9.67 5.34 9.34 4.68 9 4 C8.34 4 7.68 4 7 4 C7 4.66 7 5.32 7 6 C6.34 6 5.68 6 5 6 C5 4.68 5 3.36 5 2 C4.34 2 3.68 2 3 2 C3 3.32 3 4.64 3 6 C2.34 6 1.68 6 1 6 C0.67 4.02 0.34 2.04 0 0 Z " fill="#74848B" transform="translate(154,248)"/>
<path d="M0 0 C4.29 0 8.58 0 13 0 C13 0.99 13 1.98 13 3 C8.71 3 4.42 3 0 3 C0 2.01 0 1.02 0 0 Z " fill="#C8C8C8" transform="translate(215,148)"/>
<path d="M0 0 C0.66 0 1.32 0 2 0 C2 2.64 2 5.28 2 8 C3.65 8 5.3 8 7 8 C7 8.66 7 9.32 7 10 C4.69 10 2.38 10 0 10 C0 6.7 0 3.4 0 0 Z " fill="#596D76" transform="translate(168,215)"/>
<path d="M0 0 C1.32 0 2.64 0 4 0 C4 1.98 4 3.96 4 6 C2.35 5.67 0.7 5.34 -1 5 C-0.67 3.35 -0.34 1.7 0 0 Z " fill="#E1E5E5" transform="translate(143,217)"/>
<path d="M0 0 C2.97 0 5.94 0 9 0 C9 0.99 9 1.98 9 3 C6.03 3 3.06 3 0 3 C0 2.01 0 1.02 0 0 Z " fill="#C6C6C6" transform="translate(219,175)"/>
<path d="M0 0 C0.2475 0.61875 0.495 1.2375 0.75 1.875 C2.20628639 4.35068687 3.37812506 4.95125002 6 6 C6 5.34 6 4.68 6 4 C6.99 4 7.98 4 9 4 C8.34 5.32 7.68 6.64 7 8 C4.625 8.125 4.625 8.125 2 8 C0 6 0 6 -0.125 2.875 C-0.08375 1.92625 -0.0425 0.9775 0 0 Z " fill="#516870" transform="translate(169,114)"/>
<path d="M0 0 C0.33 0 0.66 0 1 0 C1.33 1.65 1.66 3.3 2 5 C3.32 5 4.64 5 6 5 C6.33 3.35 6.66 1.7 7 0 C7.33 0 7.66 0 8 0 C8.125 2.875 8.125 2.875 8 6 C6 8 6 8 3.4375 8.1875 C1 8 1 8 0 7 C-0.04092937 4.66702567 -0.04241723 2.33294775 0 0 Z " fill="#4B6169" transform="translate(141,217)"/>
<path d="M0 0 C3 3.75 3 3.75 3 6 C2.34 6 1.68 6 1 6 C1 6.66 1 7.32 1 8 C-0.32 8.33 -1.64 8.66 -3 9 C-2.814375 8.236875 -2.62875 7.47375 -2.4375 6.6875 C-1.77180827 3.91032625 -1.77180827 3.91032625 -3 1 C-2.01 0.67 -1.02 0.34 0 0 Z " fill="#C6CDD1" transform="translate(214,216)"/>
<path d="M0 0 C1.98 0 3.96 0 6 0 C4.68 0.33 3.36 0.66 2 1 C2 2.32 2 3.64 2 5 C2.66 5.33 3.32 5.66 4 6 C3.34 6 2.68 6 2 6 C2 7.32 2 8.64 2 10 C1.34 10 0.68 10 0 10 C0 6.7 0 3.4 0 0 Z " fill="#3E5760" transform="translate(148,111)"/>
<path d="M0 0 C2.31 0 4.62 0 7 0 C7.33 0.66 7.66 1.32 8 2 C7.67 2.99 7.34 3.98 7 5 C5.35 5 3.7 5 2 5 C2 4.01 2 3.02 2 2 C1.34 1.34 0.68 0.68 0 0 Z " fill="#A8B3B7" transform="translate(148,110)"/>
<path d="M0 0 C1.65 0 3.3 0 5 0 C5 1.98 5 3.96 5 6 C4.34 6 3.68 6 3 6 C2.67 5.34 2.34 4.68 2 4 C1.34 4.66 0.68 5.32 0 6 C0 4.02 0 2.04 0 0 Z " fill="#66797F" transform="translate(172,248)"/>
<path d="M0 0 C1.65 0 3.3 0 5 0 C4.34 1.32 3.68 2.64 3 4 C3.66 4 4.32 4 5 4 C5 4.66 5 5.32 5 6 C3.35 6 1.7 6 0 6 C0 4.02 0 2.04 0 0 Z " fill="#708188" transform="translate(178,248)"/>
<path d="M0 0 C0.33 1.32 0.66 2.64 1 4 C-0.98 4.99 -0.98 4.99 -3 6 C-3.66 4.68 -4.32 3.36 -5 2 C-3.35 1.34 -1.7 0.68 0 0 Z " fill="#677981" transform="translate(227,219)"/>
<path d="M0 0 C2.31 0 4.62 0 7 0 C7 0.99 7 1.98 7 3 C4.69 3 2.38 3 0 3 C0 2.01 0 1.02 0 0 Z " fill="#C8C8C8" transform="translate(221,191)"/>
<path d="M0 0 C0.99 0.33 1.98 0.66 3 1 C2.67 2.32 2.34 3.64 2 5 C0.68 4.67 -0.64 4.34 -2 4 C-2 3.01 -2 2.02 -2 1 C-1.34 0.67 -0.68 0.34 0 0 Z " fill="#6E8188" transform="translate(209,220)"/>
<path d="M0 0 C2.64 0 5.28 0 8 0 C8 0.66 8 1.32 8 2 C6.02 2 4.04 2 2 2 C1.67 2.66 1.34 3.32 1 4 C0.67 2.68 0.34 1.36 0 0 Z " fill="#5B7078" transform="translate(159,111)"/>
<path d="M0 0 C1.65 0 3.3 0 5 0 C4.67 1.98 4.34 3.96 4 6 C3.34 6 2.68 6 2 6 C1.34 4.02 0.68 2.04 0 0 Z " fill="#75858C" transform="translate(186,248)"/>
</svg>
